<mxfile host="65bd71144e" scale="1.2" border="10">
    <diagram id="hKsF3VO6nWa31StS4_ZH" name="v-model">
        <mxGraphModel dx="1770" dy="1077" grid="1" gridSize="10" guides="1" tooltips="1" connect="1" arrows="1" fold="1" page="1" pageScale="1" pageWidth="827" pageHeight="1169" math="0" shadow="0">
            <root>
                <mxCell id="0"/>
                <mxCell id="1" parent="0"/>
                <mxCell id="2" value="Input..." style="html=1;shadow=0;dashed=0;shape=mxgraph.bootstrap.rrect;rSize=5;strokeColor=#666666;strokeWidth=1;fillColor=#f5f5f5;whiteSpace=wrap;align=left;verticalAlign=middle;spacingLeft=10;fontSize=14;gradientColor=#b3b3b3;" parent="1" vertex="1">
                    <mxGeometry x="320" y="427" width="160" height="40" as="geometry"/>
                </mxCell>
                <mxCell id="4" value="&lt;font style=&quot;font-size: 14px;&quot;&gt;myRef&lt;/font&gt;" style="rounded=0;whiteSpace=wrap;html=1;fillColor=#dae8fc;gradientColor=#7ea6e0;strokeColor=#6c8ebf;" parent="1" vertex="1">
                    <mxGeometry x="320" y="517" width="160" height="40" as="geometry"/>
                </mxCell>
                <mxCell id="9" value="" style="html=1;shadow=0;dashed=0;align=center;verticalAlign=middle;shape=mxgraph.arrows2.uTurnArrow;dy=11;arrowHead=43;dx2=25;flipH=1;flipV=1;fillColor=#f5f5f5;gradientColor=#b3b3b3;strokeColor=#666666;" parent="1" vertex="1">
                    <mxGeometry x="565" y="437" width="70" height="120" as="geometry"/>
                </mxCell>
                <mxCell id="10" value="" style="html=1;shadow=0;dashed=0;align=center;verticalAlign=middle;shape=mxgraph.arrows2.uTurnArrow;dy=11;arrowHead=43;dx2=25;flipH=0;flipV=0;fillColor=#dae8fc;gradientColor=#7ea6e0;strokeColor=#6c8ebf;" parent="1" vertex="1">
                    <mxGeometry x="153" y="427" width="80" height="120" as="geometry"/>
                </mxCell>
                <mxCell id="11" value="&lt;font color=&quot;#666666&quot; style=&quot;font-size: 24px;&quot;&gt;&lt;u style=&quot;font-size: 24px;&quot;&gt;v-model &lt;br style=&quot;font-size: 24px;&quot;&gt;&lt;/u&gt;two-way binding&lt;/font&gt;" style="text;strokeColor=none;fillColor=none;html=1;fontSize=24;fontStyle=1;verticalAlign=middle;align=center;fontColor=#333333;" parent="1" vertex="1">
                    <mxGeometry x="285" y="310" width="230" height="70" as="geometry"/>
                </mxCell>
                <mxCell id="12" value="&lt;font color=&quot;#666666&quot;&gt;User changes&lt;br&gt;input value&lt;/font&gt;" style="html=1;verticalLabelPosition=bottom;align=center;labelBackgroundColor=#ffffff;verticalAlign=top;strokeWidth=2;strokeColor=#666666;shadow=0;dashed=0;shape=mxgraph.ios7.icons.flash;fillColor=#f5f5f5;gradientColor=#b3b3b3;" parent="1" vertex="1">
                    <mxGeometry x="514" y="427" width="18" height="30" as="geometry"/>
                </mxCell>
                <mxCell id="13" value="&lt;font color=&quot;#6c8ebf&quot;&gt;Component&lt;br&gt;changes ref value&lt;/font&gt;" style="html=1;verticalLabelPosition=bottom;align=center;labelBackgroundColor=#ffffff;verticalAlign=top;strokeWidth=2;strokeColor=#6c8ebf;shadow=0;dashed=0;shape=mxgraph.ios7.icons.flash;fillColor=#dae8fc;gradientColor=#7ea6e0;" parent="1" vertex="1">
                    <mxGeometry x="262" y="515" width="18" height="30" as="geometry"/>
                </mxCell>
                <mxCell id="16" value="&lt;font color=&quot;#666666&quot;&gt;Ref update&lt;/font&gt;" style="sketch=0;pointerEvents=1;shadow=0;dashed=0;html=1;strokeColor=#666666;labelPosition=center;verticalLabelPosition=bottom;verticalAlign=top;align=center;fillColor=#f5f5f5;shape=mxgraph.mscae.intune.update;fontSize=12;strokeWidth=1;gradientColor=#b3b3b3;" parent="1" vertex="1">
                    <mxGeometry x="507" y="526" width="27" height="27" as="geometry"/>
                </mxCell>
                <mxCell id="18" value="&lt;font color=&quot;#6c8ebf&quot;&gt;Input update&lt;/font&gt;" style="sketch=0;pointerEvents=1;shadow=0;dashed=0;html=1;strokeColor=#6c8ebf;labelPosition=center;verticalLabelPosition=bottom;verticalAlign=top;align=center;fillColor=#dae8fc;shape=mxgraph.mscae.intune.update;fontSize=12;strokeWidth=1;gradientColor=#7ea6e0;" parent="1" vertex="1">
                    <mxGeometry x="258" y="424" width="27" height="27" as="geometry"/>
                </mxCell>
            </root>
        </mxGraphModel>
    </diagram>
    <diagram name="v-bind" id="5MuhysqDjt83WdsPyjfo">
        <mxGraphModel dx="1180" dy="718" grid="1" gridSize="10" guides="1" tooltips="1" connect="1" arrows="1" fold="1" page="1" pageScale="1" pageWidth="827" pageHeight="1169" math="0" shadow="0">
            <root>
                <mxCell id="PJbt05CHmS6hWyOmj68j-0"/>
                <mxCell id="PJbt05CHmS6hWyOmj68j-1" parent="PJbt05CHmS6hWyOmj68j-0"/>
                <mxCell id="PJbt05CHmS6hWyOmj68j-2" value="Input..." style="html=1;shadow=0;dashed=0;shape=mxgraph.bootstrap.rrect;rSize=5;strokeColor=#CED4DA;strokeWidth=1;fillColor=#E9ECEF;fontColor=#505050;whiteSpace=wrap;align=left;verticalAlign=middle;spacingLeft=10;fontSize=14;" parent="PJbt05CHmS6hWyOmj68j-1" vertex="1">
                    <mxGeometry x="320" y="427" width="160" height="40" as="geometry"/>
                </mxCell>
                <mxCell id="PJbt05CHmS6hWyOmj68j-3" value="&lt;font style=&quot;font-size: 14px;&quot;&gt;myRef&lt;/font&gt;" style="rounded=0;whiteSpace=wrap;html=1;" parent="PJbt05CHmS6hWyOmj68j-1" vertex="1">
                    <mxGeometry x="320" y="517" width="160" height="40" as="geometry"/>
                </mxCell>
                <mxCell id="PJbt05CHmS6hWyOmj68j-5" value="" style="html=1;shadow=0;dashed=0;align=center;verticalAlign=middle;shape=mxgraph.arrows2.uTurnArrow;dy=11;arrowHead=43;dx2=25;flipH=0;flipV=0;" parent="PJbt05CHmS6hWyOmj68j-1" vertex="1">
                    <mxGeometry x="153" y="427" width="80" height="120" as="geometry"/>
                </mxCell>
                <mxCell id="PJbt05CHmS6hWyOmj68j-8" value="&lt;font color=&quot;#4d4d4d&quot;&gt;Component&lt;br&gt;changes ref value&lt;br&gt;&lt;/font&gt;" style="html=1;verticalLabelPosition=bottom;align=center;labelBackgroundColor=#ffffff;verticalAlign=top;strokeWidth=2;strokeColor=#4D4D4D;shadow=0;dashed=0;shape=mxgraph.ios7.icons.flash;fontColor=#6600CC;" parent="PJbt05CHmS6hWyOmj68j-1" vertex="1">
                    <mxGeometry x="262" y="515" width="18" height="30" as="geometry"/>
                </mxCell>
                <mxCell id="PJbt05CHmS6hWyOmj68j-10" value="Input update" style="sketch=0;pointerEvents=1;shadow=0;dashed=0;html=1;strokeColor=none;labelPosition=center;verticalLabelPosition=bottom;verticalAlign=top;align=center;fillColor=#505050;shape=mxgraph.mscae.intune.update;fontSize=12;fontColor=#4D4D4D;strokeWidth=1;" parent="PJbt05CHmS6hWyOmj68j-1" vertex="1">
                    <mxGeometry x="258" y="424" width="27" height="27" as="geometry"/>
                </mxCell>
                <mxCell id="WDw65Nb55716km9cZLtB-0" value="Input..." style="html=1;shadow=0;dashed=0;shape=mxgraph.bootstrap.rrect;rSize=5;strokeColor=#666666;strokeWidth=1;fillColor=#f5f5f5;whiteSpace=wrap;align=left;verticalAlign=middle;spacingLeft=10;fontSize=14;gradientColor=#b3b3b3;" parent="PJbt05CHmS6hWyOmj68j-1" vertex="1">
                    <mxGeometry x="320" y="427" width="160" height="40" as="geometry"/>
                </mxCell>
                <mxCell id="WDw65Nb55716km9cZLtB-1" value="&lt;font style=&quot;font-size: 14px;&quot;&gt;myRef&lt;/font&gt;" style="rounded=0;whiteSpace=wrap;html=1;fillColor=#dae8fc;gradientColor=#7ea6e0;strokeColor=#6c8ebf;" parent="PJbt05CHmS6hWyOmj68j-1" vertex="1">
                    <mxGeometry x="320" y="517" width="160" height="40" as="geometry"/>
                </mxCell>
                <mxCell id="WDw65Nb55716km9cZLtB-2" value="" style="html=1;shadow=0;dashed=0;align=center;verticalAlign=middle;shape=mxgraph.arrows2.uTurnArrow;dy=11;arrowHead=43;dx2=25;flipH=1;flipV=1;fillColor=#f5f5f5;gradientColor=#b3b3b3;strokeColor=#666666;opacity=20;" parent="PJbt05CHmS6hWyOmj68j-1" vertex="1">
                    <mxGeometry x="565" y="437" width="70" height="120" as="geometry"/>
                </mxCell>
                <mxCell id="WDw65Nb55716km9cZLtB-3" value="" style="html=1;shadow=0;dashed=0;align=center;verticalAlign=middle;shape=mxgraph.arrows2.uTurnArrow;dy=11;arrowHead=43;dx2=25;flipH=0;flipV=0;fillColor=#dae8fc;gradientColor=#7ea6e0;strokeColor=#6c8ebf;" parent="PJbt05CHmS6hWyOmj68j-1" vertex="1">
                    <mxGeometry x="153" y="427" width="80" height="120" as="geometry"/>
                </mxCell>
                <mxCell id="WDw65Nb55716km9cZLtB-4" value="&lt;font color=&quot;#666666&quot; style=&quot;font-size: 24px;&quot;&gt;&lt;u style=&quot;font-size: 24px;&quot;&gt;v-bind &lt;br style=&quot;font-size: 24px;&quot;&gt;&lt;/u&gt;one-way binding&lt;/font&gt;" style="text;strokeColor=none;fillColor=none;html=1;fontSize=24;fontStyle=1;verticalAlign=middle;align=center;fontColor=#333333;" parent="PJbt05CHmS6hWyOmj68j-1" vertex="1">
                    <mxGeometry x="285" y="311" width="230" height="70" as="geometry"/>
                </mxCell>
                <mxCell id="WDw65Nb55716km9cZLtB-5" value="&lt;font color=&quot;#666666&quot;&gt;User changes&lt;br&gt;input value&lt;/font&gt;" style="html=1;verticalLabelPosition=bottom;align=center;labelBackgroundColor=#ffffff;verticalAlign=top;strokeWidth=2;strokeColor=#666666;shadow=0;dashed=0;shape=mxgraph.ios7.icons.flash;fillColor=#f5f5f5;gradientColor=#b3b3b3;" parent="PJbt05CHmS6hWyOmj68j-1" vertex="1">
                    <mxGeometry x="514" y="427" width="18" height="30" as="geometry"/>
                </mxCell>
                <mxCell id="WDw65Nb55716km9cZLtB-6" value="&lt;font color=&quot;#6c8ebf&quot;&gt;Component&lt;br&gt;changes ref value&lt;/font&gt;" style="html=1;verticalLabelPosition=bottom;align=center;labelBackgroundColor=#ffffff;verticalAlign=top;strokeWidth=2;strokeColor=#6c8ebf;shadow=0;dashed=0;shape=mxgraph.ios7.icons.flash;fillColor=#dae8fc;gradientColor=#7ea6e0;" parent="PJbt05CHmS6hWyOmj68j-1" vertex="1">
                    <mxGeometry x="262" y="515" width="18" height="30" as="geometry"/>
                </mxCell>
                <mxCell id="WDw65Nb55716km9cZLtB-8" value="&lt;font color=&quot;#6c8ebf&quot;&gt;Input update&lt;/font&gt;" style="sketch=0;pointerEvents=1;shadow=0;dashed=0;html=1;strokeColor=#6c8ebf;labelPosition=center;verticalLabelPosition=bottom;verticalAlign=top;align=center;fillColor=#dae8fc;shape=mxgraph.mscae.intune.update;fontSize=12;strokeWidth=1;gradientColor=#7ea6e0;" parent="PJbt05CHmS6hWyOmj68j-1" vertex="1">
                    <mxGeometry x="258" y="424" width="27" height="27" as="geometry"/>
                </mxCell>
                <mxCell id="UWcH_k4QUWJ8oPLvmEf7-0" value="" style="endArrow=none;html=1;fontSize=24;fillColor=#f5f5f5;strokeColor=#666666;" edge="1" parent="PJbt05CHmS6hWyOmj68j-1">
                    <mxGeometry width="50" height="50" relative="1" as="geometry">
                        <mxPoint x="650" y="440" as="sourcePoint"/>
                        <mxPoint x="550" y="550" as="targetPoint"/>
                    </mxGeometry>
                </mxCell>
                <mxCell id="UWcH_k4QUWJ8oPLvmEf7-1" value="" style="endArrow=none;html=1;fontSize=24;fillColor=#f5f5f5;strokeColor=#666666;" edge="1" parent="PJbt05CHmS6hWyOmj68j-1">
                    <mxGeometry width="50" height="50" relative="1" as="geometry">
                        <mxPoint x="560" y="430" as="sourcePoint"/>
                        <mxPoint x="640" y="550" as="targetPoint"/>
                    </mxGeometry>
                </mxCell>
            </root>
        </mxGraphModel>
    </diagram>
</mxfile>